<?xml version="1.0" standalone="no"?>
<!DOCTYPE svg PUBLIC "-//W3C//DTD SVG 20010904//EN"
 "http://www.w3.org/TR/2001/REC-SVG-20010904/DTD/svg10.dtd">
<svg version="1.0" xmlns="http://www.w3.org/2000/svg"
 width="40.000000pt" height="40.000000pt" viewBox="0 0 40.000000 40.000000"
 preserveAspectRatio="xMidYMid meet">
<metadata>
Created by potrace 1.16, written by Peter Selinger 2001-2019
</metadata>
<g transform="translate(0.000000,40.000000) scale(0.100000,-0.100000)"
fill="#000000" stroke="none">
<path d="M70 387 c-13 -7 -35 -28 -47 -46 -20 -30 -23 -46 -23 -140 0 -119 9
-144 59 -178 30 -20 46 -23 140 -23 119 0 144 9 178 59 20 30 23 46 23 140 0
119 -9 144 -59 178 -30 20 -46 23 -140 23 -65 0 -116 -5 -131 -13z m271 -46
c29 -29 29 -31 29 -140 0 -102 -2 -112 -24 -138 -23 -27 -28 -28 -140 -31
l-115 -4 -31 30 c-30 30 -30 31 -30 142 0 110 0 112 29 141 29 29 31 29 141
29 110 0 112 0 141 -29z"/>
<path d="M129 271 c-41 -41 -41 -101 0 -142 65 -64 171 -20 171 71 0 91 -106
135 -171 71z m123 -18 c23 -20 24 -80 1 -105 -20 -23 -80 -24 -105 -1 -23 20
-24 80 -1 105 20 23 80 24 105 1z"/>
</g>
</svg>
